<svg version="1.1" viewBox="0.0 0.0 600.0 371.0" fill="none" stroke="none" stroke-linecap="square" stroke-miterlimit="10" width="600" height="371" xmlns:xlink="http://www.w3.org/1999/xlink" xmlns="http://www.w3.org/2000/svg"><path fill="#ffffff" d="M0 0L600.0 0L600.0 371.0L0 371.0L0 0Z" fill-rule="nonzero"/><path stroke="#333333" stroke-width="1.0" stroke-linecap="butt" d="M129.5 54.5L129.5 332.5" fill-rule="nonzero"/><path stroke="#cccccc" stroke-width="1.0" stroke-linecap="butt" d="M280.5 54.5L280.5 332.5" fill-rule="nonzero"/><path stroke="#cccccc" stroke-width="1.0" stroke-linecap="butt" d="M430.5 54.5L430.5 332.5" fill-rule="nonzero"/><path stroke="#cccccc" stroke-width="1.0" stroke-linecap="butt" d="M581.5 54.5L581.5 332.5" fill-rule="nonzero"/><path stroke="#000000" stroke-width="1.0" stroke-linecap="butt" d="M581.5 332.5L129.5 332.5" fill-rule="nonzero"/><clipPath id="id_0"><path d="M129.55 54.916668L581.45 54.916668L581.45 332.45L129.55 332.45L129.55 54.916668Z" clip-rule="nonzero"/></clipPath><path stroke="#000000" stroke-width="2.0" stroke-linecap="butt" stroke-opacity="0.0" clip-path="url(#id_0)" d="M130.0 174.0L130.0 97.0L324.0 97.0C325.10458 97.0 326.0 97.89543 326.0 99.0L326.0 172.0C326.0 173.10457 325.10458 174.0 324.0 174.0Z" fill-rule="nonzero"/><path fill="#4285f4" clip-path="url(#id_0)" d="M130.0 174.0L130.0 97.0L324.0 97.0C325.10458 97.0 326.0 97.89543 326.0 99.0L326.0 172.0C326.0 173.10457 325.10458 174.0 324.0 174.0Z" fill-rule="nonzero"/><path stroke="#000000" stroke-width="2.0" stroke-linecap="butt" stroke-opacity="0.0" clip-path="url(#id_0)" d="M130.0 292.0L130.0 215.0L572.0 215.0C573.10455 215.0 574.0 215.89543 574.0 217.0L574.0 290.0C574.0 291.10458 573.10455 292.0 572.0 292.0Z" fill-rule="nonzero"/><path fill="#4285f4" clip-path="url(#id_0)" d="M130.0 292.0L130.0 215.0L572.0 215.0C573.10455 215.0 574.0 215.89543 574.0 217.0L574.0 290.0C574.0 291.10458 573.10455 292.0 572.0 292.0Z" fill-rule="nonzero"/><path stroke="#4285f4" stroke-width="3.0" stroke-linejoin="round" stroke-linecap="round" d="M254.48944 135.85938Q254.48944 137.76562 253.83319 138.70312Q253.19257 139.625 251.80194 139.625Q250.44257 139.625 249.78632 138.71875Q249.13007 137.8125 249.09882 136.0L249.09882 134.5625Q249.09882 132.67188 249.73944 131.76562Q250.39569 130.84375 251.78632 130.84375Q253.16132 130.84375 253.81757 131.73438Q254.47382 132.60938 254.48944 134.45312L254.48944 135.85938ZM253.39569 134.375Q253.39569 133.0 253.00507 132.375Q252.63007 131.73438 251.78632 131.73438Q250.95819 131.73438 250.56757 132.375Q250.19257 133.0 250.19257 134.29688L250.19257 136.03125Q250.19257 137.40625 250.58319 138.07812Q250.98944 138.73438 251.80194 138.73438Q252.59882 138.73438 252.98944 138.10938Q253.38007 137.48438 253.39569 136.15625L253.39569 134.375ZM256.2707 138.9375Q256.2707 138.65625 256.42694 138.46875Q256.59882 138.28125 256.92694 138.28125Q257.2707 138.28125 257.44257 138.46875Q257.61444 138.65625 257.61444 138.9375Q257.61444 139.20312 257.44257 139.39062Q257.2707 139.5625 256.92694 139.5625Q256.59882 139.5625 256.42694 139.39062Q256.2707 139.20312 256.2707 138.9375ZM264.48944 135.85938Q264.48944 137.76562 263.8332 138.70312Q263.19257 139.625 261.80194 139.625Q260.44257 139.625 259.78632 138.71875Q259.13007 137.8125 259.09882 136.0L259.09882 134.5625Q259.09882 132.67188 259.73944 131.76562Q260.3957 130.84375 261.78632 130.84375Q263.16132 130.84375 263.81757 131.73438Q264.47382 132.60938 264.48944 134.45312L264.48944 135.85938ZM263.3957 134.375Q263.3957 133.0 263.00507 132.375Q262.63007 131.73438 261.78632 131.73438Q260.9582 131.73438 260.56757 132.375Q260.19257 133.0 260.19257 134.29688L260.19257 136.03125Q260.19257 137.40625 260.5832 138.07812Q260.98944 138.73438 261.80194 138.73438Q262.59882 138.73438 262.98944 138.10938Q263.38007 137.48438 263.3957 136.15625L263.3957 134.375ZM269.69257 139.5L268.61444 139.5L268.61444 132.28125L266.42694 133.07812L266.42694 132.09375L269.53632 130.92188L269.69257 130.92188L269.69257 139.5ZM274.7082 134.70312L275.5207 134.70312Q276.30194 134.6875 276.73944 134.29688Q277.17694 133.90625 277.17694 133.23438Q277.17694 131.73438 275.67694 131.73438Q274.97382 131.73438 274.55194 132.14062Q274.1457 132.54688 274.1457 133.20312L273.05194 133.20312Q273.05194 132.1875 273.78632 131.51562Q274.53632 130.84375 275.67694 130.84375Q276.88007 130.84375 277.56757 131.48438Q278.25507 132.125 278.25507 133.26562Q278.25507 133.82812 277.8957 134.34375Q277.53632 134.85938 276.91132 135.125Q277.61444 135.34375 277.98944 135.85938Q278.38007 136.375 278.38007 137.125Q278.38007 138.26562 277.63007 138.95312Q276.88007 139.625 275.67694 139.625Q274.48944 139.625 273.72382 138.96875Q272.97382 138.3125 272.97382 137.25L274.06757 137.25Q274.06757 137.92188 274.50507 138.32812Q274.94257 138.73438 275.69257 138.73438Q276.47382 138.73438 276.88007 138.32812Q277.30194 137.90625 277.30194 137.14062Q277.30194 136.40625 276.84882 136.01562Q276.3957 135.60938 275.5207 135.59375L274.7082 135.59375L274.7082 134.70312ZM285.48944 135.85938Q285.48944 137.76562 284.8332 138.70312Q284.19257 139.625 282.80194 139.625Q281.44257 139.625 280.78632 138.71875Q280.13007 137.8125 280.09882 136.0L280.09882 134.5625Q280.09882 132.67188 280.73944 131.76562Q281.3957 130.84375 282.78632 130.84375Q284.16132 130.84375 284.81757 131.73438Q285.47382 132.60938 285.48944 134.45312L285.48944 135.85938ZM284.3957 134.375Q284.3957 133.0 284.00507 132.375Q283.63007 131.73438 282.78632 131.73438Q281.9582 131.73438 281.56757 132.375Q281.19257 133.0 281.19257 134.29688L281.19257 136.03125Q281.19257 137.40625 281.5832 138.07812Q281.98944 138.73438 282.80194 138.73438Q283.59882 138.73438 283.98944 138.10938Q284.38007 137.48438 284.3957 136.15625L284.3957 134.375ZM287.63007 135.21875L288.06757 130.96875L292.44257 130.96875L292.44257 131.96875L288.98944 131.96875L288.72382 134.29688Q289.36444 133.92188 290.16132 133.92188Q291.31757 133.92188 292.00507 134.70312Q292.69257 135.46875 292.69257 136.78125Q292.69257 138.09375 291.97382 138.85938Q291.2707 139.625 289.98944 139.625Q288.86444 139.625 288.1457 139.0Q287.42694 138.35938 287.3332 137.25L288.34882 137.25Q288.4582 137.98438 288.88007 138.35938Q289.30194 138.73438 289.98944 138.73438Q290.73944 138.73438 291.17694 138.21875Q291.61444 137.70312 291.61444 136.79688Q291.61444 135.9375 291.1457 135.42188Q290.67694 134.90625 289.8957 134.90625Q289.19257 134.90625 288.78632 135.20312L288.50507 135.4375L287.63007 135.21875ZM298.3957 130.96875L298.3957 131.875L298.19257 131.875Q296.92694 131.90625 296.17694 132.64062Q295.42694 133.35938 295.30194 134.67188Q295.98944 133.90625 297.1457 133.90625Q298.25507 133.90625 298.92694 134.6875Q299.59882 135.46875 299.59882 136.71875Q299.59882 138.03125 298.88007 138.82812Q298.16132 139.625 296.94257 139.625Q295.72382 139.625 294.9582 138.6875Q294.2082 137.73438 294.2082 136.25L294.2082 135.84375Q294.2082 133.48438 295.2082 132.23438Q296.2082 130.98438 298.19257 130.96875L298.3957 130.96875ZM296.97382 134.8125Q296.41132 134.8125 295.94257 135.14062Q295.47382 135.46875 295.28632 135.98438L295.28632 136.375Q295.28632 137.4375 295.75507 138.07812Q296.23944 138.71875 296.94257 138.71875Q297.67694 138.71875 298.09882 138.1875Q298.5207 137.64062 298.5207 136.76562Q298.5207 135.89062 298.09882 135.35938Q297.67694 134.8125 296.97382 134.8125ZM305.3957 130.96875L305.3957 131.875L305.19257 131.875Q303.92694 131.90625 303.17694 132.64062Q302.42694 133.35938 302.30194 134.67188Q302.98944 133.90625 304.1457 133.90625Q305.25507 133.90625 305.92694 134.6875Q306.59882 135.46875 306.59882 136.71875Q306.59882 138.03125 305.88007 138.82812Q305.16132 139.625 303.94257 139.625Q302.72382 139.625 301.9582 138.6875Q301.2082 137.73438 301.2082 136.25L301.2082 135.84375Q301.2082 133.48438 302.2082 132.23438Q303.2082 130.98438 305.19257 130.96875L305.3957 130.96875ZM303.97382 134.8125Q303.41132 134.8125 302.94257 135.14062Q302.47382 135.46875 302.28632 135.98438L302.28632 136.375Q302.28632 137.4375 302.75507 138.07812Q303.23944 138.71875 303.94257 138.71875Q304.67694 138.71875 305.09882 138.1875Q305.5207 137.64062 305.5207 136.76562Q305.5207 135.89062 305.09882 135.35938Q304.67694 134.8125 303.97382 134.8125ZM312.3957 130.96875L312.3957 131.875L312.19257 131.875Q310.92694 131.90625 310.17694 132.64062Q309.42694 133.35938 309.30194 134.67188Q309.98944 133.90625 311.1457 133.90625Q312.25507 133.90625 312.92694 134.6875Q313.59882 135.46875 313.59882 136.71875Q313.59882 138.03125 312.88007 138.82812Q312.16132 139.625 310.94257 139.625Q309.72382 139.625 308.9582 138.6875Q308.2082 137.73438 308.2082 136.25L308.2082 135.84375Q308.2082 133.48438 309.2082 132.23438Q310.2082 130.98438 312.19257 130.96875L312.3957 130.96875ZM310.97382 134.8125Q310.41132 134.8125 309.94257 135.14062Q309.47382 135.46875 309.28632 135.98438L309.28632 136.375Q309.28632 137.4375 309.75507 138.07812Q310.23944 138.71875 310.94257 138.71875Q311.67694 138.71875 312.09882 138.1875Q312.5207 137.64062 312.5207 136.76562Q312.5207 135.89062 312.09882 135.35938Q311.67694 134.8125 310.97382 134.8125ZM320.31757 133.1875Q320.31757 133.82812 319.97382 134.32812Q319.63007 134.82812 319.06757 135.10938Q319.72382 135.39062 320.11444 135.95312Q320.50507 136.5 320.50507 137.20312Q320.50507 138.29688 319.75507 138.96875Q319.0207 139.625 317.80194 139.625Q316.56757 139.625 315.81757 138.96875Q315.0832 138.29688 315.0832 137.20312Q315.0832 136.5 315.4582 135.95312Q315.8332 135.39062 316.50507 135.10938Q315.94257 134.82812 315.61444 134.32812Q315.28632 133.82812 315.28632 133.1875Q315.28632 132.10938 315.97382 131.48438Q316.66132 130.84375 317.80194 130.84375Q318.92694 130.84375 319.61444 131.48438Q320.31757 132.10938 320.31757 133.1875ZM319.42694 137.17188Q319.42694 136.45312 318.97382 136.01562Q318.5207 135.5625 317.78632 135.5625Q317.05194 135.5625 316.59882 136.01562Q316.16132 136.45312 316.16132 137.1875Q316.16132 137.90625 316.59882 138.32812Q317.03632 138.73438 317.80194 138.73438Q318.55194 138.73438 318.98944 138.3125Q319.42694 137.89062 319.42694 137.17188ZM317.80194 131.73438Q317.16132 131.73438 316.75507 132.14062Q316.36444 132.53125 316.36444 133.21875Q316.36444 133.85938 316.75507 134.26562Q317.1457 134.67188 317.78632 134.67188Q318.44257 134.67188 318.8332 134.26562Q319.22382 133.85938 319.22382 133.21875Q319.22382 132.5625 318.81757 132.15625Q318.41132 131.73438 317.80194 131.73438Z" fill-rule="nonzero"/><path fill="#ffffff" d="M254.48944 135.85938Q254.48944 137.76562 253.83319 138.70312Q253.19257 139.625 251.80194 139.625Q250.44257 139.625 249.78632 138.71875Q249.13007 137.8125 249.09882 136.0L249.09882 134.5625Q249.09882 132.67188 249.73944 131.76562Q250.39569 130.84375 251.78632 130.84375Q253.16132 130.84375 253.81757 131.73438Q254.47382 132.60938 254.48944 134.45312L254.48944 135.85938ZM253.39569 134.375Q253.39569 133.0 253.00507 132.375Q252.63007 131.73438 251.78632 131.73438Q250.95819 131.73438 250.56757 132.375Q250.19257 133.0 250.19257 134.29688L250.19257 136.03125Q250.19257 137.40625 250.58319 138.07812Q250.98944 138.73438 251.80194 138.73438Q252.59882 138.73438 252.98944 138.10938Q253.38007 137.48438 253.39569 136.15625L253.39569 134.375ZM256.2707 138.9375Q256.2707 138.65625 256.42694 138.46875Q256.59882 138.28125 256.92694 138.28125Q257.2707 138.28125 257.44257 138.46875Q257.61444 138.65625 257.61444 138.9375Q257.61444 139.20312 257.44257 139.39062Q257.2707 139.5625 256.92694 139.5625Q256.59882 139.5625 256.42694 139.39062Q256.2707 139.20312 256.2707 138.9375ZM264.48944 135.85938Q264.48944 137.76562 263.8332 138.70312Q263.19257 139.625 261.80194 139.625Q260.44257 139.625 259.78632 138.71875Q259.13007 137.8125 259.09882 136.0L259.09882 134.5625Q259.09882 132.67188 259.73944 131.76562Q260.3957 130.84375 261.78632 130.84375Q263.16132 130.84375 263.81757 131.73438Q264.47382 132.60938 264.48944 134.45312L264.48944 135.85938ZM263.3957 134.375Q263.3957 133.0 263.00507 132.375Q262.63007 131.73438 261.78632 131.73438Q260.9582 131.73438 260.56757 132.375Q260.19257 133.0 260.19257 134.29688L260.19257 136.03125Q260.19257 137.40625 260.5832 138.07812Q260.98944 138.73438 261.80194 138.73438Q262.59882 138.73438 262.98944 138.10938Q263.38007 137.48438 263.3957 136.15625L263.3957 134.375ZM269.69257 139.5L268.61444 139.5L268.61444 132.28125L266.42694 133.07812L266.42694 132.09375L269.53632 130.92188L269.69257 130.92188L269.69257 139.5ZM274.7082 134.70312L275.5207 134.70312Q276.30194 134.6875 276.73944 134.29688Q277.17694 133.90625 277.17694 133.23438Q277.17694 131.73438 275.67694 131.73438Q274.97382 131.73438 274.55194 132.14062Q274.1457 132.54688 274.1457 133.20312L273.05194 133.20312Q273.05194 132.1875 273.78632 131.51562Q274.53632 130.84375 275.67694 130.84375Q276.88007 130.84375 277.56757 131.48438Q278.25507 132.125 278.25507 133.26562Q278.25507 133.82812 277.8957 134.34375Q277.53632 134.85938 276.91132 135.125Q277.61444 135.34375 277.98944 135.85938Q278.38007 136.375 278.38007 137.125Q278.38007 138.26562 277.63007 138.95312Q276.88007 139.625 275.67694 139.625Q274.48944 139.625 273.72382 138.96875Q272.97382 138.3125 272.97382 137.25L274.06757 137.25Q274.06757 137.92188 274.50507 138.32812Q274.94257 138.73438 275.69257 138.73438Q276.47382 138.73438 276.88007 138.32812Q277.30194 137.90625 277.30194 137.14062Q277.30194 136.40625 276.84882 136.01562Q276.3957 135.60938 275.5207 135.59375L274.7082 135.59375L274.7082 134.70312ZM285.48944 135.85938Q285.48944 137.76562 284.8332 138.70312Q284.19257 139.625 282.80194 139.625Q281.44257 139.625 280.78632 138.71875Q280.13007 137.8125 280.09882 136.0L280.09882 134.5625Q280.09882 132.67188 280.73944 131.76562Q281.3957 130.84375 282.78632 130.84375Q284.16132 130.84375 284.81757 131.73438Q285.47382 132.60938 285.48944 134.45312L285.48944 135.85938ZM284.3957 134.375Q284.3957 133.0 284.00507 132.375Q283.63007 131.73438 282.78632 131.73438Q281.9582 131.73438 281.56757 132.375Q281.19257 133.0 281.19257 134.29688L281.19257 136.03125Q281.19257 137.40625 281.5832 138.07812Q281.98944 138.73438 282.80194 138.73438Q283.59882 138.73438 283.98944 138.10938Q284.38007 137.48438 284.3957 136.15625L284.3957 134.375ZM287.63007 135.21875L288.06757 130.96875L292.44257 130.96875L292.44257 131.96875L288.98944 131.96875L288.72382 134.29688Q289.36444 133.92188 290.16132 133.92188Q291.31757 133.92188 292.00507 134.70312Q292.69257 135.46875 292.69257 136.78125Q292.69257 138.09375 291.97382 138.85938Q291.2707 139.625 289.98944 139.625Q288.86444 139.625 288.1457 139.0Q287.42694 138.35938 287.3332 137.25L288.34882 137.25Q288.4582 137.98438 288.88007 138.35938Q289.30194 138.73438 289.98944 138.73438Q290.73944 138.73438 291.17694 138.21875Q291.61444 137.70312 291.61444 136.79688Q291.61444 135.9375 291.1457 135.42188Q290.67694 134.90625 289.8957 134.90625Q289.19257 134.90625 288.78632 135.20312L288.50507 135.4375L287.63007 135.21875ZM298.3957 130.96875L298.3957 131.875L298.19257 131.875Q296.92694 131.90625 296.17694 132.64062Q295.42694 133.35938 295.30194 134.67188Q295.98944 133.90625 297.1457 133.90625Q298.25507 133.90625 298.92694 134.6875Q299.59882 135.46875 299.59882 136.71875Q299.59882 138.03125 298.88007 138.82812Q298.16132 139.625 296.94257 139.625Q295.72382 139.625 294.9582 138.6875Q294.2082 137.73438 294.2082 136.25L294.2082 135.84375Q294.2082 133.48438 295.2082 132.23438Q296.2082 130.98438 298.19257 130.96875L298.3957 130.96875ZM296.97382 134.8125Q296.41132 134.8125 295.94257 135.14062Q295.47382 135.46875 295.28632 135.98438L295.28632 136.375Q295.28632 137.4375 295.75507 138.07812Q296.23944 138.71875 296.94257 138.71875Q297.67694 138.71875 298.09882 138.1875Q298.5207 137.64062 298.5207 136.76562Q298.5207 135.89062 298.09882 135.35938Q297.67694 134.8125 296.97382 134.8125ZM305.3957 130.96875L305.3957 131.875L305.19257 131.875Q303.92694 131.90625 303.17694 132.64062Q302.42694 133.35938 302.30194 134.67188Q302.98944 133.90625 304.1457 133.90625Q305.25507 133.90625 305.92694 134.6875Q306.59882 135.46875 306.59882 136.71875Q306.59882 138.03125 305.88007 138.82812Q305.16132 139.625 303.94257 139.625Q302.72382 139.625 301.9582 138.6875Q301.2082 137.73438 301.2082 136.25L301.2082 135.84375Q301.2082 133.48438 302.2082 132.23438Q303.2082 130.98438 305.19257 130.96875L305.3957 130.96875ZM303.97382 134.8125Q303.41132 134.8125 302.94257 135.14062Q302.47382 135.46875 302.28632 135.98438L302.28632 136.375Q302.28632 137.4375 302.75507 138.07812Q303.23944 138.71875 303.94257 138.71875Q304.67694 138.71875 305.09882 138.1875Q305.5207 137.64062 305.5207 136.76562Q305.5207 135.89062 305.09882 135.35938Q304.67694 134.8125 303.97382 134.8125ZM312.3957 130.96875L312.3957 131.875L312.19257 131.875Q310.92694 131.90625 310.17694 132.64062Q309.42694 133.35938 309.30194 134.67188Q309.98944 133.90625 311.1457 133.90625Q312.25507 133.90625 312.92694 134.6875Q313.59882 135.46875 313.59882 136.71875Q313.59882 138.03125 312.88007 138.82812Q312.16132 139.625 310.94257 139.625Q309.72382 139.625 308.9582 138.6875Q308.2082 137.73438 308.2082 136.25L308.2082 135.84375Q308.2082 133.48438 309.2082 132.23438Q310.2082 130.98438 312.19257 130.96875L312.3957 130.96875ZM310.97382 134.8125Q310.41132 134.8125 309.94257 135.14062Q309.47382 135.46875 309.28632 135.98438L309.28632 136.375Q309.28632 137.4375 309.75507 138.07812Q310.23944 138.71875 310.94257 138.71875Q311.67694 138.71875 312.09882 138.1875Q312.5207 137.64062 312.5207 136.76562Q312.5207 135.89062 312.09882 135.35938Q311.67694 134.8125 310.97382 134.8125ZM320.31757 133.1875Q320.31757 133.82812 319.97382 134.32812Q319.63007 134.82812 319.06757 135.10938Q319.72382 135.39062 320.11444 135.95312Q320.50507 136.5 320.50507 137.20312Q320.50507 138.29688 319.75507 138.96875Q319.0207 139.625 317.80194 139.625Q316.56757 139.625 315.81757 138.96875Q315.0832 138.29688 315.0832 137.20312Q315.0832 136.5 315.4582 135.95312Q315.8332 135.39062 316.50507 135.10938Q315.94257 134.82812 315.61444 134.32812Q315.28632 133.82812 315.28632 133.1875Q315.28632 132.10938 315.97382 131.48438Q316.66132 130.84375 317.80194 130.84375Q318.92694 130.84375 319.61444 131.48438Q320.31757 132.10938 320.31757 133.1875ZM319.42694 137.17188Q319.42694 136.45312 318.97382 136.01562Q318.5207 135.5625 317.78632 135.5625Q317.05194 135.5625 316.59882 136.01562Q316.16132 136.45312 316.16132 137.1875Q316.16132 137.90625 316.59882 138.32812Q317.03632 138.73438 317.80194 138.73438Q318.55194 138.73438 318.98944 138.3125Q319.42694 137.89062 319.42694 137.17188ZM317.80194 131.73438Q317.16132 131.73438 316.75507 132.14062Q316.36444 132.53125 316.36444 133.21875Q316.36444 133.85938 316.75507 134.26562Q317.1457 134.67188 317.78632 134.67188Q318.44257 134.67188 318.8332 134.26562Q319.22382 133.85938 319.22382 133.21875Q319.22382 132.5625 318.81757 132.15625Q318.41132 131.73438 317.80194 131.73438Z" fill-rule="nonzero"/><path stroke="#4285f4" stroke-width="3.0" stroke-linejoin="round" stroke-linecap="round" d="M523.70807 253.85938Q523.70807 255.76562 523.0518 256.70312Q522.4112 257.625 521.02057 257.625Q519.6612 257.625 519.00494 256.71875Q518.3487 255.8125 518.31744 254.0L518.31744 252.5625Q518.31744 250.67188 518.95807 249.76562Q519.6143 248.84375 521.00494 248.84375Q522.37994 248.84375 523.0362 249.73438Q523.69244 250.60938 523.70807 252.45312L523.70807 253.85938ZM522.6143 252.375Q522.6143 251.0 522.2237 250.375Q521.8487 249.73438 521.00494 249.73438Q520.1768 249.73438 519.7862 250.375Q519.4112 251.0 519.4112 252.29688L519.4112 254.03125Q519.4112 255.40625 519.8018 256.07812Q520.20807 256.73438 521.02057 256.73438Q521.81744 256.73438 522.20807 256.10938Q522.5987 255.48438 522.6143 254.15625L522.6143 252.375ZM525.4893 256.9375Q525.4893 256.65625 525.64557 256.46875Q525.81744 256.28125 526.14557 256.28125Q526.4893 256.28125 526.6612 256.46875Q526.83307 256.65625 526.83307 256.9375Q526.83307 257.20312 526.6612 257.39062Q526.4893 257.5625 526.14557 257.5625Q525.81744 257.5625 525.64557 257.39062Q525.4893 257.20312 525.4893 256.9375ZM533.70807 253.85938Q533.70807 255.76562 533.0518 256.70312Q532.4112 257.625 531.02057 257.625Q529.6612 257.625 529.00494 256.71875Q528.3487 255.8125 528.31744 254.0L528.31744 252.5625Q528.31744 250.67188 528.95807 249.76562Q529.6143 248.84375 531.00494 248.84375Q532.37994 248.84375 533.0362 249.73438Q533.69244 250.60938 533.70807 252.45312L533.70807 253.85938ZM532.6143 252.375Q532.6143 251.0 532.2237 250.375Q531.8487 249.73438 531.00494 249.73438Q530.1768 249.73438 529.7862 250.375Q529.4112 251.0 529.4112 252.29688L529.4112 254.03125Q529.4112 255.40625 529.8018 256.07812Q530.20807 256.73438 531.02057 256.73438Q531.81744 256.73438 532.20807 256.10938Q532.5987 255.48438 532.6143 254.15625L532.6143 252.375ZM540.94244 257.5L535.3487 257.5L535.3487 256.71875L538.3018 253.4375Q538.95807 252.6875 539.20807 252.23438Q539.45807 251.76562 539.45807 251.26562Q539.45807 250.59375 539.0518 250.17188Q538.6612 249.73438 537.9737 249.73438Q537.1768 249.73438 536.7237 250.20312Q536.27057 250.65625 536.27057 251.48438L535.19244 251.48438Q535.19244 250.29688 535.94244 249.57812Q536.70807 248.84375 537.9737 248.84375Q539.1768 248.84375 539.8643 249.46875Q540.5518 250.09375 540.5518 251.14062Q540.5518 252.39062 538.94244 254.14062L536.6612 256.60938L540.94244 256.60938L540.94244 257.5ZM546.50494 253.75Q546.1768 254.15625 545.69244 254.40625Q545.2237 254.64062 544.6612 254.64062Q543.9268 254.64062 543.37994 254.28125Q542.83307 253.92188 542.5362 253.26562Q542.2393 252.59375 542.2393 251.79688Q542.2393 250.95312 542.5518 250.26562Q542.87994 249.57812 543.4737 249.21875Q544.08307 248.84375 544.87994 248.84375Q546.14557 248.84375 546.8643 249.79688Q547.5987 250.75 547.5987 252.375L547.5987 252.6875Q547.5987 255.1875 546.6143 256.32812Q545.62994 257.46875 543.64557 257.5L543.4268 257.5L543.4268 256.59375L543.6612 256.59375Q545.00494 256.5625 545.7237 255.89062Q546.44244 255.21875 546.50494 253.75ZM544.83307 253.75Q545.37994 253.75 545.83307 253.42188Q546.3018 253.07812 546.52057 252.59375L546.52057 252.15625Q546.52057 251.09375 546.0518 250.42188Q545.58307 249.75 544.87994 249.75Q544.1612 249.75 543.7237 250.29688Q543.3018 250.84375 543.3018 251.75Q543.3018 252.625 543.70807 253.1875Q544.12994 253.75 544.83307 253.75ZM549.8487 253.21875L550.2862 248.96875L554.6612 248.96875L554.6612 249.96875L551.20807 249.96875L550.94244 252.29688Q551.58307 251.92188 552.37994 251.92188Q553.5362 251.92188 554.2237 252.70312Q554.9112 253.46875 554.9112 254.78125Q554.9112 256.09375 554.19244 256.85938Q553.4893 257.625 552.20807 257.625Q551.08307 257.625 550.3643 257.0Q549.64557 256.35938 549.5518 255.25L550.56744 255.25Q550.6768 255.98438 551.0987 256.35938Q551.52057 256.73438 552.20807 256.73438Q552.95807 256.73438 553.39557 256.21875Q553.83307 255.70312 553.83307 254.79688Q553.83307 253.9375 553.3643 253.42188Q552.89557 252.90625 552.1143 252.90625Q551.4112 252.90625 551.00494 253.20312L550.7237 253.4375L549.8487 253.21875ZM557.9268 252.70312L558.7393 252.70312Q559.52057 252.6875 559.95807 252.29688Q560.39557 251.90625 560.39557 251.23438Q560.39557 249.73438 558.89557 249.73438Q558.19244 249.73438 557.77057 250.14062Q557.3643 250.54688 557.3643 251.20312L556.27057 251.20312Q556.27057 250.1875 557.00494 249.51562Q557.75494 248.84375 558.89557 248.84375Q560.0987 248.84375 560.7862 249.48438Q561.4737 250.125 561.4737 251.26562Q561.4737 251.82812 561.1143 252.34375Q560.75494 252.85938 560.12994 253.125Q560.83307 253.34375 561.20807 253.85938Q561.5987 254.375 561.5987 255.125Q561.5987 256.26562 560.8487 256.95312Q560.0987 257.625 558.89557 257.625Q557.70807 257.625 556.94244 256.96875Q556.19244 256.3125 556.19244 255.25L557.2862 255.25Q557.2862 255.92188 557.7237 256.32812Q558.1612 256.73438 558.9112 256.73438Q559.69244 256.73438 560.0987 256.32812Q560.52057 255.90625 560.52057 255.14062Q560.52057 254.40625 560.06744 254.01562Q559.6143 253.60938 558.7393 253.59375L557.9268 253.59375L557.9268 252.70312ZM563.8487 253.21875L564.2862 248.96875L568.6612 248.96875L568.6612 249.96875L565.20807 249.96875L564.94244 252.29688Q565.58307 251.92188 566.37994 251.92188Q567.5362 251.92188 568.2237 252.70312Q568.9112 253.46875 568.9112 254.78125Q568.9112 256.09375 568.19244 256.85938Q567.4893 257.625 566.20807 257.625Q565.08307 257.625 564.3643 257.0Q563.64557 256.35938 563.5518 255.25L564.56744 255.25Q564.6768 255.98438 565.0987 256.35938Q565.52057 256.73438 566.20807 256.73438Q566.95807 256.73438 567.39557 256.21875Q567.83307 255.70312 567.83307 254.79688Q567.83307 253.9375 567.3643 253.42188Q566.89557 252.90625 566.1143 252.90625Q565.4112 252.90625 565.00494 253.20312L564.7237 253.4375L563.8487 253.21875Z" fill-rule="nonzero"/><path fill="#ffffff" d="M523.70807 253.85938Q523.70807 255.76562 523.0518 256.70312Q522.4112 257.625 521.02057 257.625Q519.6612 257.625 519.00494 256.71875Q518.3487 255.8125 518.31744 254.0L518.31744 252.5625Q518.31744 250.67188 518.95807 249.76562Q519.6143 248.84375 521.00494 248.84375Q522.37994 248.84375 523.0362 249.73438Q523.69244 250.60938 523.70807 252.45312L523.70807 253.85938ZM522.6143 252.375Q522.6143 251.0 522.2237 250.375Q521.8487 249.73438 521.00494 249.73438Q520.1768 249.73438 519.7862 250.375Q519.4112 251.0 519.4112 252.29688L519.4112 254.03125Q519.4112 255.40625 519.8018 256.07812Q520.20807 256.73438 521.02057 256.73438Q521.81744 256.73438 522.20807 256.10938Q522.5987 255.48438 522.6143 254.15625L522.6143 252.375ZM525.4893 256.9375Q525.4893 256.65625 525.64557 256.46875Q525.81744 256.28125 526.14557 256.28125Q526.4893 256.28125 526.6612 256.46875Q526.83307 256.65625 526.83307 256.9375Q526.83307 257.20312 526.6612 257.39062Q526.4893 257.5625 526.14557 257.5625Q525.81744 257.5625 525.64557 257.39062Q525.4893 257.20312 525.4893 256.9375ZM533.70807 253.85938Q533.70807 255.76562 533.0518 256.70312Q532.4112 257.625 531.02057 257.625Q529.6612 257.625 529.00494 256.71875Q528.3487 255.8125 528.31744 254.0L528.31744 252.5625Q528.31744 250.67188 528.95807 249.76562Q529.6143 248.84375 531.00494 248.84375Q532.37994 248.84375 533.0362 249.73438Q533.69244 250.60938 533.70807 252.45312L533.70807 253.85938ZM532.6143 252.375Q532.6143 251.0 532.2237 250.375Q531.8487 249.73438 531.00494 249.73438Q530.1768 249.73438 529.7862 250.375Q529.4112 251.0 529.4112 252.29688L529.4112 254.03125Q529.4112 255.40625 529.8018 256.07812Q530.20807 256.73438 531.02057 256.73438Q531.81744 256.73438 532.20807 256.10938Q532.5987 255.48438 532.6143 254.15625L532.6143 252.375ZM540.94244 257.5L535.3487 257.5L535.3487 256.71875L538.3018 253.4375Q538.95807 252.6875 539.20807 252.23438Q539.45807 251.76562 539.45807 251.26562Q539.45807 250.59375 539.0518 250.17188Q538.6612 249.73438 537.9737 249.73438Q537.1768 249.73438 536.7237 250.20312Q536.27057 250.65625 536.27057 251.48438L535.19244 251.48438Q535.19244 250.29688 535.94244 249.57812Q536.70807 248.84375 537.9737 248.84375Q539.1768 248.84375 539.8643 249.46875Q540.5518 250.09375 540.5518 251.14062Q540.5518 252.39062 538.94244 254.14062L536.6612 256.60938L540.94244 256.60938L540.94244 257.5ZM546.50494 253.75Q546.1768 254.15625 545.69244 254.40625Q545.2237 254.64062 544.6612 254.64062Q543.9268 254.64062 543.37994 254.28125Q542.83307 253.92188 542.5362 253.26562Q542.2393 252.59375 542.2393 251.79688Q542.2393 250.95312 542.5518 250.26562Q542.87994 249.57812 543.4737 249.21875Q544.08307 248.84375 544.87994 248.84375Q546.14557 248.84375 546.8643 249.79688Q547.5987 250.75 547.5987 252.375L547.5987 252.6875Q547.5987 255.1875 546.6143 256.32812Q545.62994 257.46875 543.64557 257.5L543.4268 257.5L543.4268 256.59375L543.6612 256.59375Q545.00494 256.5625 545.7237 255.89062Q546.44244 255.21875 546.50494 253.75ZM544.83307 253.75Q545.37994 253.75 545.83307 253.42188Q546.3018 253.07812 546.52057 252.59375L546.52057 252.15625Q546.52057 251.09375 546.0518 250.42188Q545.58307 249.75 544.87994 249.75Q544.1612 249.75 543.7237 250.29688Q543.3018 250.84375 543.3018 251.75Q543.3018 252.625 543.70807 253.1875Q544.12994 253.75 544.83307 253.75ZM549.8487 253.21875L550.2862 248.96875L554.6612 248.96875L554.6612 249.96875L551.20807 249.96875L550.94244 252.29688Q551.58307 251.92188 552.37994 251.92188Q553.5362 251.92188 554.2237 252.70312Q554.9112 253.46875 554.9112 254.78125Q554.9112 256.09375 554.19244 256.85938Q553.4893 257.625 552.20807 257.625Q551.08307 257.625 550.3643 257.0Q549.64557 256.35938 549.5518 255.25L550.56744 255.25Q550.6768 255.98438 551.0987 256.35938Q551.52057 256.73438 552.20807 256.73438Q552.95807 256.73438 553.39557 256.21875Q553.83307 255.70312 553.83307 254.79688Q553.83307 253.9375 553.3643 253.42188Q552.89557 252.90625 552.1143 252.90625Q551.4112 252.90625 551.00494 253.20312L550.7237 253.4375L549.8487 253.21875ZM557.9268 252.70312L558.7393 252.70312Q559.52057 252.6875 559.95807 252.29688Q560.39557 251.90625 560.39557 251.23438Q560.39557 249.73438 558.89557 249.73438Q558.19244 249.73438 557.77057 250.14062Q557.3643 250.54688 557.3643 251.20312L556.27057 251.20312Q556.27057 250.1875 557.00494 249.51562Q557.75494 248.84375 558.89557 248.84375Q560.0987 248.84375 560.7862 249.48438Q561.4737 250.125 561.4737 251.26562Q561.4737 251.82812 561.1143 252.34375Q560.75494 252.85938 560.12994 253.125Q560.83307 253.34375 561.20807 253.85938Q561.5987 254.375 561.5987 255.125Q561.5987 256.26562 560.8487 256.95312Q560.0987 257.625 558.89557 257.625Q557.70807 257.625 556.94244 256.96875Q556.19244 256.3125 556.19244 255.25L557.2862 255.25Q557.2862 255.92188 557.7237 256.32812Q558.1612 256.73438 558.9112 256.73438Q559.69244 256.73438 560.0987 256.32812Q560.52057 255.90625 560.52057 255.14062Q560.52057 254.40625 560.06744 254.01562Q559.6143 253.60938 558.7393 253.59375L557.9268 253.59375L557.9268 252.70312ZM563.8487 253.21875L564.2862 248.96875L568.6612 248.96875L568.6612 249.96875L565.20807 249.96875L564.94244 252.29688Q565.58307 251.92188 566.37994 251.92188Q567.5362 251.92188 568.2237 252.70312Q568.9112 253.46875 568.9112 254.78125Q568.9112 256.09375 568.19244 256.85938Q567.4893 257.625 566.20807 257.625Q565.08307 257.625 564.3643 257.0Q563.64557 256.35938 563.5518 255.25L564.56744 255.25Q564.6768 255.98438 565.0987 256.35938Q565.52057 256.73438 566.20807 256.73438Q566.95807 256.73438 567.39557 256.21875Q567.83307 255.70312 567.83307 254.79688Q567.83307 253.9375 567.3643 253.42188Q566.89557 252.90625 566.1143 252.90625Q565.4112 252.90625 565.00494 253.20312L564.7237 253.4375L563.8487 253.21875Z" fill-rule="nonzero"/><path fill="#000000" d="M19.346874 141.0243L19.346874 132.41493L20.3 132.41493L20.3 133.2118Q20.64375 132.74306 21.065624 132.50868Q21.503124 132.2743 22.1125 132.2743Q22.909374 132.2743 23.51875 132.68056Q24.128124 133.0868 24.425 133.8368Q24.7375 134.5868 24.7375 135.47743Q24.7375 136.43056 24.39375 137.19618Q24.065624 137.9618 23.409374 138.36806Q22.753124 138.7743 22.034374 138.7743Q21.503124 138.7743 21.08125 138.55556Q20.659374 138.32118 20.39375 137.99306L20.39375 141.0243L19.346874 141.0243ZM20.3 135.55556Q20.3 136.75868 20.784374 137.3368Q21.26875 137.8993 21.95625 137.8993Q22.659374 137.8993 23.159374 137.30556Q23.659374 136.7118 23.659374 135.4618Q23.659374 134.2743 23.175 133.69618Q22.690624 133.10243 22.003124 133.10243Q21.33125 133.10243 20.815624 133.72743Q20.3 134.35243 20.3 135.55556ZM25.95625 135.5243Q25.95625 133.78993 26.909374 132.9618Q27.70625 132.2743 28.8625 132.2743Q30.14375 132.2743 30.95625 133.11806Q31.784374 133.94618 31.784374 135.43056Q31.784374 136.63368 31.425 137.32118Q31.065624 138.00868 30.3625 138.3993Q29.675 138.7743 28.8625 138.7743Q27.565624 138.7743 26.753124 137.94618Q25.95625 137.10243 25.95625 135.5243ZM27.034374 135.5243Q27.034374 136.7118 27.55 137.30556Q28.08125 137.8993 28.8625 137.8993Q29.659374 137.8993 30.175 137.30556Q30.690624 136.7118 30.690624 135.49306Q30.690624 134.3368 30.159374 133.74306Q29.64375 133.1493 28.8625 133.1493Q28.08125 133.1493 27.55 133.74306Q27.034374 134.32118 27.034374 135.5243ZM32.925 136.7743L33.95625 136.61806Q34.05 137.24306 34.440624 137.57118Q34.846874 137.8993 35.58125 137.8993Q36.3 137.8993 36.64375 137.61806Q37.003124 137.32118 37.003124 136.91493Q37.003124 136.55556 36.690624 136.35243Q36.471874 136.2118 35.6125 135.99306Q34.45625 135.69618 34.003124 135.49306Q33.565624 135.2743 33.33125 134.8993Q33.096874 134.5243 33.096874 134.05556Q33.096874 133.6493 33.284374 133.28993Q33.471874 132.93056 33.8 132.69618Q34.05 132.5243 34.471874 132.3993Q34.89375 132.2743 35.39375 132.2743Q36.1125 132.2743 36.659374 132.49306Q37.221874 132.69618 37.4875 133.05556Q37.753124 133.41493 37.846874 134.00868L36.815624 134.1493Q36.753124 133.68056 36.409374 133.41493Q36.08125 133.13368 35.45625 133.13368Q34.7375 133.13368 34.425 133.38368Q34.1125 133.61806 34.1125 133.94618Q34.1125 134.1493 34.2375 134.30556Q34.378124 134.47743 34.64375 134.5868Q34.8 134.6493 35.58125 134.85243Q36.70625 135.16493 37.14375 135.35243Q37.58125 135.53993 37.83125 135.8993Q38.08125 136.25868 38.08125 136.80556Q38.08125 137.3368 37.76875 137.80556Q37.471874 138.25868 36.89375 138.5243Q36.315624 138.7743 35.58125 138.7743Q34.3625 138.7743 33.721874 138.2743Q33.096874 137.75868 32.925 136.7743ZM42.64375 137.69618L42.8 138.61806Q42.346874 138.7118 42.003124 138.7118Q41.425 138.7118 41.1125 138.53993Q40.8 138.35243 40.659374 138.05556Q40.534374 137.75868 40.534374 136.80556L40.534374 133.22743L39.76875 133.22743L39.76875 132.41493L40.534374 132.41493L40.534374 130.86806L41.58125 130.24306L41.58125 132.41493L42.64375 132.41493L42.64375 133.22743L41.58125 133.22743L41.58125 136.86806Q41.58125 137.32118 41.628124 137.44618Q41.690624 137.57118 41.815624 137.6493Q41.940624 137.72743 42.175 137.72743Q42.3625 137.72743 42.64375 137.69618ZM43.14375 139.1493L44.175 139.30556Q44.2375 139.7743 44.534374 139.99306Q44.925 140.28993 45.596874 140.28993Q46.33125 140.28993 46.721874 139.99306Q47.128124 139.69618 47.26875 139.18056Q47.3625 138.85243 47.346874 137.82118Q46.659374 138.63368 45.628124 138.63368Q44.346874 138.63368 43.64375 137.7118Q42.940624 136.7743 42.940624 135.49306Q42.940624 134.60243 43.253124 133.85243Q43.58125 133.0868 44.190624 132.68056Q44.8 132.2743 45.628124 132.2743Q46.7375 132.2743 47.45625 133.16493L47.45625 132.41493L48.425 132.41493L48.425 137.78993Q48.425 139.24306 48.128124 139.85243Q47.83125 140.4618 47.190624 140.80556Q46.55 141.16493 45.6125 141.16493Q44.503124 141.16493 43.815624 140.66493Q43.128124 140.16493 43.14375 139.1493ZM44.01875 135.41493Q44.01875 136.63368 44.503124 137.19618Q44.9875 137.75868 45.721874 137.75868Q46.45625 137.75868 46.940624 137.19618Q47.440624 136.63368 47.440624 135.44618Q47.440624 134.30556 46.925 133.72743Q46.425 133.1493 45.70625 133.1493Q45.003124 133.1493 44.503124 133.72743Q44.01875 134.28993 44.01875 135.41493ZM50.33125 138.63368L50.33125 132.41493L51.284374 132.41493L51.284374 133.35243Q51.64375 132.69618 51.940624 132.49306Q52.253124 132.2743 52.628124 132.2743Q53.159374 132.2743 53.70625 132.60243L53.346874 133.5868Q52.95625 133.35243 52.58125 133.35243Q52.221874 133.35243 51.940624 133.57118Q51.675 133.7743 51.565624 134.1493Q51.378124 134.7118 51.378124 135.36806L51.378124 138.63368L50.33125 138.63368ZM58.596874 136.63368L59.690624 136.75868Q59.440624 137.7118 58.7375 138.24306Q58.034374 138.7743 56.95625 138.7743Q55.596874 138.7743 54.784374 137.93056Q53.9875 137.0868 53.9875 135.57118Q53.9875 134.00868 54.8 133.1493Q55.6125 132.2743 56.89375 132.2743Q58.14375 132.2743 58.925 133.11806Q59.721874 133.9618 59.721874 135.50868Q59.721874 135.60243 59.721874 135.78993L55.08125 135.78993Q55.14375 136.82118 55.659374 137.36806Q56.175 137.8993 56.95625 137.8993Q57.534374 137.8993 57.940624 137.60243Q58.3625 137.28993 58.596874 136.63368ZM55.14375 134.93056L58.6125 134.93056Q58.55 134.13368 58.221874 133.74306Q57.70625 133.13368 56.909374 133.13368Q56.175 133.13368 55.675 133.61806Q55.190624 134.10243 55.14375 134.93056ZM60.925 136.7743L61.95625 136.61806Q62.05 137.24306 62.440624 137.57118Q62.846874 137.8993 63.58125 137.8993Q64.3 137.8993 64.64375 137.61806Q65.00313 137.32118 65.00313 136.91493Q65.00313 136.55556 64.69063 136.35243Q64.47188 136.2118 63.6125 135.99306Q62.45625 135.69618 62.003124 135.49306Q61.565624 135.2743 61.33125 134.8993Q61.096874 134.5243 61.096874 134.05556Q61.096874 133.6493 61.284374 133.28993Q61.471874 132.93056 61.8 132.69618Q62.05 132.5243 62.471874 132.3993Q62.89375 132.2743 63.39375 132.2743Q64.1125 132.2743 64.65938 132.49306Q65.22188 132.69618 65.4875 133.05556Q65.75313 133.41493 65.84688 134.00868L64.81563 134.1493Q64.75313 133.68056 64.40938 133.41493Q64.08125 133.13368 63.45625 133.13368Q62.7375 133.13368 62.425 133.38368Q62.1125 133.61806 62.1125 133.94618Q62.1125 134.1493 62.2375 134.30556Q62.378124 134.47743 62.64375 134.5868Q62.8 134.6493 63.58125 134.85243Q64.70625 135.16493 65.14375 135.35243Q65.58125 135.53993 65.83125 135.8993Q66.08125 136.25868 66.08125 136.80556Q66.08125 137.3368 65.76875 137.80556Q65.47188 138.25868 64.89375 138.5243Q64.31563 138.7743 63.58125 138.7743Q62.3625 138.7743 61.721874 138.2743Q61.096874 137.75868 60.925 136.7743ZM67.925 136.05556L67.925 134.99306L71.175 134.99306L71.175 136.05556L67.925 136.05556ZM76.425 138.63368L76.425 137.7118Q75.69063 138.7743 74.44063 138.7743Q73.89375 138.7743 73.40938 138.57118Q72.94063 138.35243 72.70625 138.03993Q72.47188 137.7118 72.37813 137.24306Q72.31563 136.94618 72.31563 136.25868L72.31563 132.41493L73.37813 132.41493L73.37813 135.86806Q73.37813 136.68056 73.44063 136.97743Q73.53438 137.38368 73.84688 137.63368Q74.175 137.86806 74.65938 137.86806Q75.12813 137.86806 75.53438 137.63368Q75.95625 137.38368 76.12813 136.9618Q76.31563 136.53993 76.31563 135.74306L76.31563 132.41493L77.3625 132.41493L77.3625 138.63368L76.425 138.63368ZM79.34688 138.63368L79.34688 132.41493L80.28438 132.41493L80.28438 133.28993Q80.97188 132.2743 82.26875 132.2743Q82.83125 132.2743 83.3 132.47743Q83.78438 132.68056 84.01875 133.00868Q84.25313 133.3368 84.34688 133.7743Q84.39375 134.07118 84.39375 134.80556L84.39375 138.63368L83.34688 138.63368L83.34688 134.85243Q83.34688 134.19618 83.22188 133.88368Q83.09688 133.57118 82.78438 133.38368Q82.47188 133.18056 82.05 133.18056Q81.37813 133.18056 80.87813 133.61806Q80.39375 134.03993 80.39375 135.22743L80.39375 138.63368L79.34688 138.63368ZM86.31563 138.63368L86.31563 130.03993L87.37813 130.03993L87.37813 138.63368L86.31563 138.63368ZM88.95625 135.5243Q88.95625 133.78993 89.90938 132.9618Q90.70625 132.2743 91.8625 132.2743Q93.14375 132.2743 93.95625 133.11806Q94.78438 133.94618 94.78438 135.43056Q94.78438 136.63368 94.425 137.32118Q94.06563 138.00868 93.3625 138.3993Q92.675 138.7743 91.8625 138.7743Q90.56563 138.7743 89.75313 137.94618Q88.95625 137.10243 88.95625 135.5243ZM90.03438 135.5243Q90.03438 136.7118 90.55 137.30556Q91.08125 137.8993 91.8625 137.8993Q92.65938 137.8993 93.175 137.30556Q93.69063 136.7118 93.69063 135.49306Q93.69063 134.3368 93.15938 133.74306Q92.64375 133.1493 91.8625 133.1493Q91.08125 133.1493 90.55 133.74306Q90.03438 134.32118 90.03438 135.5243ZM96.14375 139.1493L97.175 139.30556Q97.2375 139.7743 97.53438 139.99306Q97.925 140.28993 98.59688 140.28993Q99.33125 140.28993 99.72188 139.99306Q100.12813 139.69618 100.26875 139.18056Q100.3625 138.85243 100.34688 137.82118Q99.65938 138.63368 98.62813 138.63368Q97.34688 138.63368 96.64375 137.7118Q95.94063 136.7743 95.94063 135.49306Q95.94063 134.60243 96.25313 133.85243Q96.58125 133.0868 97.19063 132.68056Q97.8 132.2743 98.62813 132.2743Q99.7375 132.2743 100.45625 133.16493L100.45625 132.41493L101.425 132.41493L101.425 137.78993Q101.425 139.24306 101.12813 139.85243Q100.83125 140.4618 100.19063 140.80556Q99.55 141.16493 98.6125 141.16493Q97.50313 141.16493 96.81563 140.66493Q96.12813 140.16493 96.14375 139.1493ZM97.01875 135.41493Q97.01875 136.63368 97.50313 137.19618Q97.9875 137.75868 98.72188 137.75868Q99.45625 137.75868 99.94063 137.19618Q100.44063 136.63368 100.44063 135.44618Q100.44063 134.30556 99.925 133.72743Q99.425 133.1493 98.70625 133.1493Q98.00313 133.1493 97.50313 133.72743Q97.01875 134.28993 97.01875 135.41493ZM103.14375 139.1493L104.175 139.30556Q104.2375 139.7743 104.53438 139.99306Q104.925 140.28993 105.59688 140.28993Q106.33125 140.28993 106.72188 139.99306Q107.12813 139.69618 107.26875 139.18056Q107.3625 138.85243 107.34688 137.82118Q106.65938 138.63368 105.62813 138.63368Q104.34688 138.63368 103.64375 137.7118Q102.94063 136.7743 102.94063 135.49306Q102.94063 134.60243 103.25313 133.85243Q103.58125 133.0868 104.19063 132.68056Q104.8 132.2743 105.62813 132.2743Q106.7375 132.2743 107.45625 133.16493L107.45625 132.41493L108.425 132.41493L108.425 137.78993Q108.425 139.24306 108.12813 139.85243Q107.83125 140.4618 107.19063 140.80556Q106.55 141.16493 105.6125 141.16493Q104.50313 141.16493 103.81563 140.66493Q103.12813 140.16493 103.14375 139.1493ZM104.01875 135.41493Q104.01875 136.63368 104.50313 137.19618Q104.9875 137.75868 105.72188 137.75868Q106.45625 137.75868 106.94063 137.19618Q107.44063 136.63368 107.44063 135.44618Q107.44063 134.30556 106.925 133.72743Q106.425 133.1493 105.70625 133.1493Q105.00313 133.1493 104.50313 133.72743Q104.01875 134.28993 104.01875 135.41493ZM114.59688 136.63368L115.69063 136.75868Q115.44063 137.7118 114.7375 138.24306Q114.03438 138.7743 112.95625 138.7743Q111.59688 138.7743 110.78438 137.93056Q109.9875 137.0868 109.9875 135.57118Q109.9875 134.00868 110.8 133.1493Q111.6125 132.2743 112.89375 132.2743Q114.14375 132.2743 114.925 133.11806Q115.72188 133.9618 115.72188 135.50868Q115.72188 135.60243 115.72188 135.78993L111.08125 135.78993Q111.14375 136.82118 111.65938 137.36806Q112.175 137.8993 112.95625 137.8993Q113.53438 137.8993 113.94063 137.60243Q114.3625 137.28993 114.59688 136.63368ZM111.14375 134.93056L114.6125 134.93056Q114.55 134.13368 114.22188 133.74306Q113.70625 133.13368 112.90938 133.13368Q112.175 133.13368 111.675 133.61806Q111.19063 134.10243 111.14375 134.93056ZM121.37813 138.63368L121.37813 137.85243Q120.78438 138.7743 119.64375 138.7743Q118.89375 138.7743 118.26875 138.36806Q117.64375 137.94618 117.3 137.2118Q116.95625 136.47743 116.95625 135.5243Q116.95625 134.60243 117.26875 133.8368Q117.58125 133.07118 118.20625 132.68056Q118.83125 132.2743 119.59688 132.2743Q120.15938 132.2743 120.59688 132.50868Q121.03438 132.74306 121.31563 133.11806L121.31563 130.03993L122.3625 130.03993L122.3625 138.63368L121.37813 138.63368ZM118.05 135.5243Q118.05 136.72743 118.55 137.32118Q119.05 137.8993 119.7375 137.8993Q120.425 137.8993 120.90938 137.3368Q121.39375 136.7743 121.39375 135.61806Q121.39375 134.3368 120.89375 133.74306Q120.40938 133.1493 119.69063 133.1493Q118.9875 133.1493 118.51875 133.72743Q118.05 134.28993 118.05 135.5243Z" fill-rule="nonzero"/><path fill="#000000" d="M96.33125 256.73297L96.33125 250.51422L97.28438 250.51422L97.28438 251.45172Q97.64375 250.79547 97.94063 250.59235Q98.25313 250.3736 98.62813 250.3736Q99.15938 250.3736 99.70625 250.70172L99.34688 251.6861Q98.95625 251.45172 98.58125 251.45172Q98.22188 251.45172 97.94063 251.67047Q97.675 251.8736 97.56563 252.2486Q97.37813 252.8111 97.37813 253.46735L97.37813 256.73297L96.33125 256.73297ZM104.59688 254.73297L105.69063 254.85797Q105.44063 255.8111 104.7375 256.34235Q104.03438 256.8736 102.95625 256.8736Q101.59688 256.8736 100.78438 256.02985Q99.9875 255.1861 99.9875 253.67047Q99.9875 252.10797 100.8 251.2486Q101.6125 250.3736 102.89375 250.3736Q104.14375 250.3736 104.925 251.21735Q105.72188 252.0611 105.72188 253.60797Q105.72188 253.70172 105.72188 253.88922L101.08125 253.88922Q101.14375 254.92047 101.65938 255.46735Q102.175 255.9986 102.95625 255.9986Q103.53438 255.9986 103.94063 255.70172Q104.3625 255.38922 104.59688 254.73297ZM101.14375 253.02985L104.6125 253.02985Q104.55 252.23297 104.22188 251.84235Q103.70625 251.23297 102.90938 251.23297Q102.175 251.23297 101.675 251.71735Q101.19063 252.20172 101.14375 253.02985ZM111.37813 256.73297L111.37813 255.95172Q110.78438 256.8736 109.64375 256.8736Q108.89375 256.8736 108.26875 256.46735Q107.64375 256.04547 107.3 255.3111Q106.95625 254.57672 106.95625 253.6236Q106.95625 252.70172 107.26875 251.9361Q107.58125 251.17047 108.20625 250.77985Q108.83125 250.3736 109.59688 250.3736Q110.15938 250.3736 110.59688 250.60797Q111.03438 250.84235 111.31563 251.21735L111.31563 248.13922L112.3625 248.13922L112.3625 256.73297L111.37813 256.73297ZM108.05 253.6236Q108.05 254.82672 108.55 255.42047Q109.05 255.9986 109.7375 255.9986Q110.425 255.9986 110.90938 255.4361Q111.39375 254.8736 111.39375 253.71735Q111.39375 252.4361 110.89375 251.84235Q110.40938 251.2486 109.69063 251.2486Q108.9875 251.2486 108.51875 251.82672Q108.05 252.38922 108.05 253.6236ZM114.34688 249.35797L114.34688 248.13922L115.40938 248.13922L115.40938 249.35797L114.34688 249.35797ZM114.34688 256.73297L114.34688 250.51422L115.40938 250.51422L115.40938 256.73297L114.34688 256.73297ZM116.925 254.8736L117.95625 254.71735Q118.05 255.34235 118.44063 255.67047Q118.84688 255.9986 119.58125 255.9986Q120.3 255.9986 120.64375 255.71735Q121.00313 255.42047 121.00313 255.01422Q121.00313 254.65485 120.69063 254.45172Q120.47188 254.3111 119.6125 254.09235Q118.45625 253.79547 118.00313 253.59235Q117.56563 253.3736 117.33125 252.9986Q117.09688 252.6236 117.09688 252.15485Q117.09688 251.7486 117.28438 251.38922Q117.47188 251.02985 117.8 250.79547Q118.05 250.6236 118.47188 250.4986Q118.89375 250.3736 119.39375 250.3736Q120.1125 250.3736 120.65938 250.59235Q121.22188 250.79547 121.4875 251.15485Q121.75313 251.51422 121.84688 252.10797L120.81563 252.2486Q120.75313 251.77985 120.40938 251.51422Q120.08125 251.23297 119.45625 251.23297Q118.7375 251.23297 118.425 251.48297Q118.1125 251.71735 118.1125 252.04547Q118.1125 252.2486 118.2375 252.40485Q118.37813 252.57672 118.64375 252.6861Q118.8 252.7486 119.58125 252.95172Q120.70625 253.26422 121.14375 253.45172Q121.58125 253.63922 121.83125 253.9986Q122.08125 254.35797 122.08125 254.90485Q122.08125 255.4361 121.76875 255.90485Q121.47188 256.35797 120.89375 256.6236Q120.31563 256.8736 119.58125 256.8736Q118.3625 256.8736 117.72188 256.3736Q117.09688 255.85797 116.925 254.8736Z" fill-rule="nonzero"/><path fill="#000000" d="M118.05 345.21564Q118.05 343.6844 118.3625 342.7625Q118.675 341.825 119.28438 341.325Q119.90938 340.825 120.84688 340.825Q121.53438 340.825 122.05 341.10626Q122.58125 341.3875 122.925 341.91876Q123.26875 342.4344 123.45625 343.1844Q123.64375 343.9344 123.64375 345.21564Q123.64375 346.73126 123.33125 347.65314Q123.03438 348.575 122.40938 349.09064Q121.8 349.59064 120.84688 349.59064Q119.6125 349.59064 118.89375 348.7Q118.05 347.6375 118.05 345.21564ZM119.12813 345.21564Q119.12813 347.325 119.62813 348.02814Q120.12813 348.73126 120.84688 348.73126Q121.58125 348.73126 122.06563 348.02814Q122.56563 347.325 122.56563 345.21564Q122.56563 343.09064 122.06563 342.40314Q121.58125 341.7 120.83125 341.7Q120.1125 341.7 119.675 342.3094Q119.12813 343.09064 119.12813 345.21564ZM125.64375 349.45L125.64375 348.2469L126.84688 348.2469L126.84688 349.45L125.64375 349.45ZM128.05 345.21564Q128.05 343.6844 128.3625 342.7625Q128.675 341.825 129.28438 341.325Q129.90938 340.825 130.84688 340.825Q131.53438 340.825 132.05 341.10626Q132.58125 341.3875 132.925 341.91876Q133.26875 342.4344 133.45625 343.1844Q133.64375 343.9344 133.64375 345.21564Q133.64375 346.73126 133.33125 347.65314Q133.03438 348.575 132.40938 349.09064Q131.8 349.59064 130.84688 349.59064Q129.6125 349.59064 128.89375 348.7Q128.05 347.6375 128.05 345.21564ZM129.12813 345.21564Q129.12813 347.325 129.62813 348.02814Q130.12813 348.73126 130.84688 348.73126Q131.58125 348.73126 132.06563 348.02814Q132.56563 347.325 132.56563 345.21564Q132.56563 343.09064 132.06563 342.40314Q131.58125 341.7 130.83125 341.7Q130.1125 341.7 129.675 342.3094Q129.12813 343.09064 129.12813 345.21564ZM135.05 345.21564Q135.05 343.6844 135.3625 342.7625Q135.675 341.825 136.28438 341.325Q136.90938 340.825 137.84688 340.825Q138.53438 340.825 139.05 341.10626Q139.58125 341.3875 139.925 341.91876Q140.26875 342.4344 140.45625 343.1844Q140.64375 343.9344 140.64375 345.21564Q140.64375 346.73126 140.33125 347.65314Q140.03438 348.575 139.40938 349.09064Q138.8 349.59064 137.84688 349.59064Q136.6125 349.59064 135.89375 348.7Q135.05 347.6375 135.05 345.21564ZM136.12813 345.21564Q136.12813 347.325 136.62813 348.02814Q137.12813 348.73126 137.84688 348.73126Q138.58125 348.73126 139.06563 348.02814Q139.56563 347.325 139.56563 345.21564Q139.56563 343.09064 139.06563 342.40314Q138.58125 341.7 137.83125 341.7Q137.1125 341.7 136.675 342.3094Q136.12813 343.09064 136.12813 345.21564Z" fill-rule="nonzero"/><path fill="#000000" d="M268.68332 345.21564Q268.68332 343.6844 268.99582 342.7625Q269.30832 341.825 269.9177 341.325Q270.5427 340.825 271.4802 340.825Q272.1677 340.825 272.68332 341.10626Q273.21457 341.3875 273.55832 341.91876Q273.90207 342.4344 274.08957 343.1844Q274.27707 343.9344 274.27707 345.21564Q274.27707 346.73126 273.96457 347.65314Q273.6677 348.575 273.0427 349.09064Q272.43332 349.59064 271.4802 349.59064Q270.24582 349.59064 269.52707 348.7Q268.68332 347.6375 268.68332 345.21564ZM269.76144 345.21564Q269.76144 347.325 270.26144 348.02814Q270.76144 348.73126 271.4802 348.73126Q272.21457 348.73126 272.69894 348.02814Q273.19894 347.325 273.19894 345.21564Q273.19894 343.09064 272.69894 342.40314Q272.21457 341.7 271.46457 341.7Q270.74582 341.7 270.30832 342.3094Q269.76144 343.09064 269.76144 345.21564ZM276.27707 349.45L276.27707 348.2469L277.4802 348.2469L277.4802 349.45L276.27707 349.45ZM278.68332 345.21564Q278.68332 343.6844 278.99582 342.7625Q279.30832 341.825 279.9177 341.325Q280.5427 340.825 281.4802 340.825Q282.1677 340.825 282.68332 341.10626Q283.21457 341.3875 283.55832 341.91876Q283.90207 342.4344 284.08957 343.1844Q284.27707 343.9344 284.27707 345.21564Q284.27707 346.73126 283.96457 347.65314Q283.6677 348.575 283.0427 349.09064Q282.43332 349.59064 281.4802 349.59064Q280.24582 349.59064 279.52707 348.7Q278.68332 347.6375 278.68332 345.21564ZM279.76144 345.21564Q279.76144 347.325 280.26144 348.02814Q280.76144 348.73126 281.4802 348.73126Q282.21457 348.73126 282.69894 348.02814Q283.19894 347.325 283.19894 345.21564Q283.19894 343.09064 282.69894 342.40314Q282.21457 341.7 281.46457 341.7Q280.74582 341.7 280.30832 342.3094Q279.76144 343.09064 279.76144 345.21564ZM289.65207 349.45L288.6052 349.45L288.6052 342.73126Q288.21457 343.09064 287.58957 343.46564Q286.9802 343.825 286.49582 343.9969L286.49582 342.98126Q287.37082 342.5594 288.02707 341.98126Q288.69894 341.3875 288.9802 340.825L289.65207 340.825L289.65207 349.45Z" fill-rule="nonzero"/><path fill="#000000" d="M419.31668 345.21564Q419.31668 343.6844 419.62918 342.7625Q419.94168 341.825 420.55106 341.325Q421.17606 340.825 422.11356 340.825Q422.80106 340.825 423.31668 341.10626Q423.84793 341.3875 424.19168 341.91876Q424.53543 342.4344 424.72293 343.1844Q424.91043 343.9344 424.91043 345.21564Q424.91043 346.73126 424.59793 347.65314Q424.30106 348.575 423.67606 349.09064Q423.06668 349.59064 422.11356 349.59064Q420.87918 349.59064 420.16043 348.7Q419.31668 347.6375 419.31668 345.21564ZM420.3948 345.21564Q420.3948 347.325 420.8948 348.02814Q421.3948 348.73126 422.11356 348.73126Q422.84793 348.73126 423.3323 348.02814Q423.8323 347.325 423.8323 345.21564Q423.8323 343.09064 423.3323 342.40314Q422.84793 341.7 422.09793 341.7Q421.37918 341.7 420.94168 342.3094Q420.3948 343.09064 420.3948 345.21564ZM426.91043 349.45L426.91043 348.2469L428.11356 348.2469L428.11356 349.45L426.91043 349.45ZM429.31668 345.21564Q429.31668 343.6844 429.62918 342.7625Q429.94168 341.825 430.55106 341.325Q431.17606 340.825 432.11356 340.825Q432.80106 340.825 433.31668 341.10626Q433.84793 341.3875 434.19168 341.91876Q434.53543 342.4344 434.72293 343.1844Q434.91043 343.9344 434.91043 345.21564Q434.91043 346.73126 434.59793 347.65314Q434.30106 348.575 433.67606 349.09064Q433.06668 349.59064 432.11356 349.59064Q430.87918 349.59064 430.16043 348.7Q429.31668 347.6375 429.31668 345.21564ZM430.3948 345.21564Q430.3948 347.325 430.8948 348.02814Q431.3948 348.73126 432.11356 348.73126Q432.84793 348.73126 433.3323 348.02814Q433.8323 347.325 433.8323 345.21564Q433.8323 343.09064 433.3323 342.40314Q432.84793 341.7 432.09793 341.7Q431.37918 341.7 430.94168 342.3094Q430.3948 343.09064 430.3948 345.21564ZM441.86356 348.4344L441.86356 349.45L436.17606 349.45Q436.17606 349.075 436.30106 348.71564Q436.5198 348.1375 436.98856 347.575Q437.47293 347.0125 438.37918 346.27814Q439.78543 345.1219 440.2698 344.45Q440.7698 343.77814 440.7698 343.1844Q440.7698 342.5594 440.31668 342.1375Q439.86356 341.7 439.1448 341.7Q438.37918 341.7 437.92606 342.15314Q437.47293 342.60626 437.4573 343.41876L436.37918 343.3094Q436.48856 342.09064 437.2073 341.46564Q437.94168 340.825 439.17606 340.825Q440.41043 340.825 441.12918 341.5125Q441.84793 342.2 441.84793 343.21564Q441.84793 343.73126 441.62918 344.23126Q441.42606 344.71564 440.92606 345.27814Q440.44168 345.825 439.31668 346.77814Q438.36356 347.575 438.0823 347.8719Q437.81668 348.15314 437.6448 348.4344L441.86356 348.4344Z" fill-rule="nonzero"/><path fill="#000000" d="M569.95 345.21564Q569.95 343.6844 570.2625 342.7625Q570.575 341.825 571.1844 341.325Q571.8094 340.825 572.7469 340.825Q573.4344 340.825 573.95 341.10626Q574.48126 341.3875 574.825 341.91876Q575.16876 342.4344 575.35626 343.1844Q575.54376 343.9344 575.54376 345.21564Q575.54376 346.73126 575.23126 347.65314Q574.9344 348.575 574.3094 349.09064Q573.7 349.59064 572.7469 349.59064Q571.5125 349.59064 570.79376 348.7Q569.95 347.6375 569.95 345.21564ZM571.02814 345.21564Q571.02814 347.325 571.52814 348.02814Q572.02814 348.73126 572.7469 348.73126Q573.48126 348.73126 573.96564 348.02814Q574.46564 347.325 574.46564 345.21564Q574.46564 343.09064 573.96564 342.40314Q573.48126 341.7 572.73126 341.7Q572.0125 341.7 571.575 342.3094Q571.02814 343.09064 571.02814 345.21564ZM577.54376 349.45L577.54376 348.2469L578.7469 348.2469L578.7469 349.45L577.54376 349.45ZM579.95 345.21564Q579.95 343.6844 580.2625 342.7625Q580.575 341.825 581.1844 341.325Q581.8094 340.825 582.7469 340.825Q583.4344 340.825 583.95 341.10626Q584.48126 341.3875 584.825 341.91876Q585.16876 342.4344 585.35626 343.1844Q585.54376 343.9344 585.54376 345.21564Q585.54376 346.73126 585.23126 347.65314Q584.9344 348.575 584.3094 349.09064Q583.7 349.59064 582.7469 349.59064Q581.5125 349.59064 580.79376 348.7Q579.95 347.6375 579.95 345.21564ZM581.02814 345.21564Q581.02814 347.325 581.52814 348.02814Q582.02814 348.73126 582.7469 348.73126Q583.48126 348.73126 583.96564 348.02814Q584.46564 347.325 584.46564 345.21564Q584.46564 343.09064 583.96564 342.40314Q583.48126 341.7 582.73126 341.7Q582.0125 341.7 581.575 342.3094Q581.02814 343.09064 581.02814 345.21564ZM586.95 347.1844L588.0125 347.04376Q588.1844 347.9344 588.6219 348.34064Q589.0594 348.73126 589.6844 348.73126Q590.4344 348.73126 590.95 348.21564Q591.46564 347.7 591.46564 346.9344Q591.46564 346.21564 590.98126 345.7469Q590.5125 345.2625 589.77814 345.2625Q589.48126 345.2625 589.02814 345.3875L589.15314 344.45Q589.2625 344.46564 589.325 344.46564Q589.9969 344.46564 590.52814 344.1219Q591.075 343.7625 591.075 343.02814Q591.075 342.45 590.6844 342.075Q590.29376 341.6844 589.66876 341.6844Q589.0594 341.6844 588.6375 342.075Q588.23126 342.46564 588.1219 343.23126L587.0594 343.04376Q587.2469 341.9969 587.9344 341.41876Q588.6219 340.825 589.6375 340.825Q590.34064 340.825 590.9344 341.1375Q591.52814 341.4344 591.84064 341.95Q592.15314 342.46564 592.15314 343.0594Q592.15314 343.60626 591.85626 344.075Q591.5594 344.52814 590.98126 344.79376Q591.73126 344.96564 592.15314 345.52814Q592.575 346.075 592.575 346.91876Q592.575 348.04376 591.7469 348.825Q590.9344 349.60626 589.6844 349.60626Q588.5594 349.60626 587.8094 348.9344Q587.0594 348.2469 586.95 347.1844Z" fill-rule="nonzero"/><path fill="#757575" d="M19.8625 41.51875L19.8625 27.175L21.471874 27.175L21.471874 28.51875Q22.034374 27.7375 22.7375 27.346874Q23.45625 26.940624 24.471874 26.940624Q25.8 26.940624 26.815624 27.628124Q27.83125 28.315624 28.346874 29.565624Q28.878124 30.8 28.878124 32.284374Q28.878124 33.878124 28.3 35.159374Q27.7375 36.425 26.64375 37.1125Q25.55 37.784374 24.346874 37.784374Q23.471874 37.784374 22.76875 37.409374Q22.08125 37.034374 21.628124 36.471874L21.628124 41.51875L19.8625 41.51875ZM21.45625 32.425Q21.45625 34.425 22.26875 35.378124Q23.08125 36.33125 24.2375 36.33125Q25.409374 36.33125 26.2375 35.346874Q27.08125 34.3625 27.08125 32.26875Q27.08125 30.3 26.253124 29.315624Q25.440624 28.315624 24.315624 28.315624Q23.190624 28.315624 22.315624 29.378124Q21.45625 30.425 21.45625 32.425ZM30.55 38.409374L32.253124 38.659374Q32.3625 39.45625 32.846874 39.815624Q33.503124 40.3 34.64375 40.3Q35.8625 40.3 36.51875 39.815624Q37.190624 39.33125 37.425 38.45625Q37.565624 37.909374 37.55 36.190624Q36.39375 37.55 34.675 37.55Q32.534374 37.55 31.3625 36.003124Q30.190624 34.45625 30.190624 32.3Q30.190624 30.815624 30.721874 29.565624Q31.26875 28.315624 32.284374 27.628124Q33.315624 26.940624 34.690624 26.940624Q36.51875 26.940624 37.721874 28.425L37.721874 27.175L39.33125 27.175L39.33125 36.14375Q39.33125 38.565624 38.83125 39.565624Q38.346874 40.58125 37.26875 41.159374Q36.20625 41.753124 34.64375 41.753124Q32.8 41.753124 31.64375 40.925Q30.503124 40.096874 30.55 38.409374ZM32.003124 32.175Q32.003124 34.221874 32.815624 35.159374Q33.628124 36.096874 34.846874 36.096874Q36.05 36.096874 36.8625 35.159374Q37.690624 34.221874 37.690624 32.2375Q37.690624 30.33125 36.846874 29.3625Q36.003124 28.39375 34.815624 28.39375Q33.64375 28.39375 32.815624 29.346874Q32.003124 30.3 32.003124 32.175ZM50.753124 37.55L46.8 27.175L48.659374 27.175L50.89375 33.39375Q51.253124 34.39375 51.55 35.471874Q51.784374 34.659374 52.20625 33.503124L54.503124 27.175L56.315624 27.175L52.39375 37.55L50.753124 37.55ZM56.159374 34.45625L57.909374 34.175Q58.05 35.221874 58.721874 35.784374Q59.39375 36.33125 60.596874 36.33125Q61.8 36.33125 62.378124 35.846874Q62.971874 35.346874 62.971874 34.690624Q62.971874 34.096874 62.45625 33.753124Q62.096874 33.51875 60.659374 33.159374Q58.721874 32.659374 57.971874 32.315624Q57.2375 31.95625 56.846874 31.33125Q56.45625 30.690624 56.45625 29.925Q56.45625 29.2375 56.76875 28.64375Q57.096874 28.05 57.64375 27.659374Q58.05 27.3625 58.753124 27.159374Q59.471874 26.940624 60.284374 26.940624Q61.503124 26.940624 62.425 27.3Q63.346874 27.64375 63.784374 28.253124Q64.22188 28.846874 64.39375 29.846874L62.675 30.08125Q62.55 29.284374 61.9875 28.846874Q61.425 28.39375 60.409374 28.39375Q59.190624 28.39375 58.675 28.8Q58.159374 29.190624 58.159374 29.721874Q58.159374 30.065624 58.378124 30.346874Q58.58125 30.628124 59.05 30.815624Q59.315624 30.909374 60.596874 31.253124Q62.471874 31.753124 63.20625 32.08125Q63.940624 32.39375 64.3625 33.003124Q64.78438 33.596874 64.78438 34.503124Q64.78438 35.378124 64.26875 36.159374Q63.753124 36.940624 62.784374 37.3625Q61.815624 37.784374 60.596874 37.784374Q58.58125 37.784374 57.51875 36.940624Q56.45625 36.096874 56.159374 34.45625ZM72.84688 37.55L72.84688 27.175L74.425 27.175L74.425 28.753124Q75.03438 27.64375 75.55 27.3Q76.06563 26.940624 76.675 26.940624Q77.56563 26.940624 78.4875 27.503124L77.87813 29.14375Q77.2375 28.753124 76.59688 28.753124Q76.01875 28.753124 75.55 29.1125Q75.09688 29.45625 74.89375 30.065624Q74.6125 31.003124 74.6125 32.1125L74.6125 37.55L72.84688 37.55ZM86.97188 34.20625L88.78438 34.440624Q88.3625 36.01875 87.19063 36.909374Q86.03438 37.784374 84.22188 37.784374Q81.95625 37.784374 80.6125 36.39375Q79.28438 34.9875 79.28438 32.45625Q79.28438 29.83125 80.62813 28.39375Q81.97188 26.940624 84.12813 26.940624Q86.20625 26.940624 87.51875 28.3625Q88.84688 29.76875 88.84688 32.346874Q88.84688 32.503124 88.83125 32.815624L81.09688 32.815624Q81.19063 34.51875 82.06563 35.425Q82.94063 36.33125 84.2375 36.33125Q85.20625 36.33125 85.87813 35.83125Q86.56563 35.315624 86.97188 34.20625ZM81.19063 31.3625L86.9875 31.3625Q86.87813 30.065624 86.33125 29.409374Q85.4875 28.39375 84.14375 28.39375Q82.94063 28.39375 82.1125 29.20625Q81.28438 30.003124 81.19063 31.3625ZM97.59688 37.55L97.59688 36.2375Q96.6125 37.784374 94.69063 37.784374Q93.45625 37.784374 92.40938 37.096874Q91.37813 36.409374 90.8 35.190624Q90.2375 33.971874 90.2375 32.378124Q90.2375 30.815624 90.75313 29.55Q91.26875 28.284374 92.3 27.6125Q93.34688 26.940624 94.6125 26.940624Q95.55 26.940624 96.28438 27.346874Q97.01875 27.7375 97.4875 28.3625L97.4875 23.2375L99.22188 23.2375L99.22188 37.55L97.59688 37.55ZM92.03438 32.378124Q92.03438 34.3625 92.87813 35.346874Q93.72188 36.33125 94.8625 36.33125Q96.01875 36.33125 96.81563 35.39375Q97.62813 34.45625 97.62813 32.51875Q97.62813 30.39375 96.8 29.39375Q95.9875 28.39375 94.78438 28.39375Q93.6125 28.39375 92.81563 29.3625Q92.03438 30.315624 92.03438 32.378124ZM101.87813 25.253124L101.87813 23.2375L103.64375 23.2375L103.64375 25.253124L101.87813 25.253124ZM101.87813 37.55L101.87813 27.175L103.64375 27.175L103.64375 37.55L101.87813 37.55ZM105.15938 34.45625L106.90938 34.175Q107.05 35.221874 107.72188 35.784374Q108.39375 36.33125 109.59688 36.33125Q110.8 36.33125 111.37813 35.846874Q111.97188 35.346874 111.97188 34.690624Q111.97188 34.096874 111.45625 33.753124Q111.09688 33.51875 109.65938 33.159374Q107.72188 32.659374 106.97188 32.315624Q106.2375 31.95625 105.84688 31.33125Q105.45625 30.690624 105.45625 29.925Q105.45625 29.2375 105.76875 28.64375Q106.09688 28.05 106.64375 27.659374Q107.05 27.3625 107.75313 27.159374Q108.47188 26.940624 109.28438 26.940624Q110.50313 26.940624 111.425 27.3Q112.34688 27.64375 112.78438 28.253124Q113.22188 28.846874 113.39375 29.846874L111.675 30.08125Q111.55 29.284374 110.9875 28.846874Q110.425 28.39375 109.40938 28.39375Q108.19063 28.39375 107.675 28.8Q107.15938 29.190624 107.15938 29.721874Q107.15938 30.065624 107.37813 30.346874Q107.58125 30.628124 108.05 30.815624Q108.31563 30.909374 109.59688 31.253124Q111.47188 31.753124 112.20625 32.08125Q112.94063 32.39375 113.3625 33.003124Q113.78438 33.596874 113.78438 34.503124Q113.78438 35.378124 113.26875 36.159374Q112.75313 36.940624 111.78438 37.3625Q110.81563 37.784374 109.59688 37.784374Q107.58125 37.784374 106.51875 36.940624Q105.45625 36.096874 105.15938 34.45625Z" fill-rule="nonzero"/></svg>